<svg xmlns="http://www.w3.org/2000/svg" height="16" width="18" viewBox="0 0 576 512"><!--!Font Awesome Free 6.5.1 by @fontawesome - https://fontawesome.com License - https://fontawesome.com/license/free Copyright 2023 Fonticons, Inc.--><path opacity="1" fill="#1E3050" d="M576 216v16c0 13.3-10.7 24-24 24h-8l-26.1 182.8C514.5 462.4 494.3 480 470.4 480H105.6c-23.9 0-44.1-17.6-47.5-41.2L32 256h-8c-13.3 0-24-10.7-24-24v-16c0-13.3 10.7-24 24-24h67.3l106.8-146.8c10.4-14.3 30.4-17.5 44.7-7.1 14.3 10.4 17.5 30.4 7.1 44.7L170.5 192h235L326.1 82.8c-10.4-14.3-7.2-34.3 7.1-44.7 14.3-10.4 34.3-7.2 44.7 7.1L484.7 192H552c13.3 0 24 10.7 24 24zM312 392V280c0-13.3-10.7-24-24-24s-24 10.7-24 24v112c0 13.3 10.7 24 24 24s24-10.7 24-24zm112 0V280c0-13.3-10.7-24-24-24s-24 10.7-24 24v112c0 13.3 10.7 24 24 24s24-10.7 24-24zm-224 0V280c0-13.3-10.7-24-24-24s-24 10.7-24 24v112c0 13.3 10.7 24 24 24s24-10.7 24-24z"/></svg>