<svg width="78" height="78" viewBox="0 0 78 78" fill="none" xmlns="http://www.w3.org/2000/svg">
<g filter="url(#filter0_d_251_5327)">
<circle cx="39" cy="35" r="35" fill="#FEAA00"/>
<circle cx="39" cy="35" r="28" stroke="#1A8639" stroke-width="4"/>
<g clip-path="url(#clip0_251_5327)">
<path d="M51.6 26L50.0394 47.8557C49.9747 48.7639 49.5683 49.6139 48.902 50.2345C48.2357 50.8551 47.3589 51.2001 46.4484 51.2001H31.5516C30.641 51.2001 29.7643 50.8551 29.098 50.2345C28.4316 49.6139 28.0252 48.7639 27.9606 47.8557L26.4 26M35.4 33.2V44M42.6 33.2V44M44.4 26V20.6C44.4 20.1227 44.2103 19.6648 43.8728 19.3273C43.5352 18.9897 43.0774 18.8 42.6 18.8H35.4C34.9226 18.8 34.4647 18.9897 34.1272 19.3273C33.7896 19.6648 33.6 20.1227 33.6 20.6V26M24.6 26H53.4" stroke="#D82300" stroke-width="4" stroke-linecap="round" stroke-linejoin="round"/>
</g>
<mask id="path-4-outside-1_251_5327" maskUnits="userSpaceOnUse" x="7" y="26" width="64" height="16" fill="black">
<rect fill="white" x="7" y="26" width="64" height="16"/>
<path d="M13.496 31.256C14.488 31.256 15.3147 31.4587 15.976 31.864C16.6373 32.2693 16.968 32.712 16.968 33.192C16.968 33.3307 16.9093 33.4587 16.792 33.576C16.6747 33.6933 16.5253 33.752 16.344 33.752C16.184 33.752 16.008 33.6987 15.816 33.592C15.624 33.4747 15.4427 33.352 15.272 33.224C15.1013 33.096 14.8773 32.9787 14.6 32.872C14.3227 32.7653 14.0293 32.712 13.72 32.712C13.304 32.712 13.096 32.84 13.096 33.096C13.096 33.2773 13.2027 33.4213 13.416 33.528C13.6293 33.6347 13.9387 33.7467 14.344 33.864C14.76 33.9813 15.0747 34.0933 15.288 34.2C16.088 34.5093 16.6373 34.8453 16.936 35.208C17.2347 35.56 17.384 36.0293 17.384 36.616C17.384 36.904 17.304 37.192 17.144 37.48C16.984 37.7573 16.744 38.024 16.424 38.28C16.104 38.5253 15.6667 38.728 15.112 38.888C14.568 39.0373 13.944 39.112 13.24 39.112C11.864 39.112 10.8347 38.7973 10.152 38.168C9.82133 37.8587 9.656 37.5387 9.656 37.208C9.656 37.0053 9.72 36.8453 9.848 36.728C9.98667 36.6107 10.1787 36.552 10.424 36.552C10.6693 36.552 11.0427 36.6747 11.544 36.92C12.0453 37.1547 12.5093 37.272 12.936 37.272C13.5227 37.272 13.816 37.128 13.816 36.84C13.816 36.6907 13.6613 36.5733 13.352 36.488C13.0427 36.392 12.6373 36.28 12.136 36.152C11.6347 36.024 11.2347 35.864 10.936 35.672C10.4667 35.4693 10.136 35.2187 9.944 34.92C9.76267 34.6107 9.672 34.2373 9.672 33.8C9.672 33.0533 10.024 32.4453 10.728 31.976C11.4427 31.496 12.3653 31.256 13.496 31.256ZM28.2084 34.776C28.2084 34.1787 27.9684 33.88 27.4884 33.88C27.275 33.88 27.115 34.0027 27.0084 34.248C26.9017 34.4933 26.8484 34.8027 26.8484 35.176C26.8484 35.7413 26.8377 36.2107 26.8164 36.584C26.8057 36.9573 26.7737 37.2933 26.7204 37.592C26.667 37.8907 26.603 38.1253 26.5284 38.296C26.4537 38.4667 26.3524 38.6107 26.2244 38.728C26.0964 38.8347 25.9524 38.9093 25.7924 38.952C25.6324 38.984 25.4297 39 25.1844 39C24.811 39 24.507 38.9467 24.2724 38.84C24.0484 38.7333 23.8884 38.584 23.7924 38.392C23.6964 38.2 23.6484 37.96 23.6484 37.672V34.776C23.6484 34.1787 23.4084 33.88 22.9284 33.88C22.7364 33.88 22.5764 33.992 22.4484 34.216C22.331 34.4293 22.2724 34.712 22.2724 35.064V37.288C22.2724 37.928 22.139 38.376 21.8724 38.632C21.6057 38.8773 21.1364 39 20.4644 39C19.835 39 19.403 38.856 19.1684 38.568C18.9444 38.2693 18.8324 37.784 18.8324 37.112V33.176C18.8324 32.632 18.9764 32.1947 19.2644 31.864C19.563 31.5333 19.9577 31.368 20.4484 31.368C21.323 31.368 21.8777 31.6507 22.1124 32.216C22.5177 31.9173 22.9124 31.7093 23.2964 31.592C23.691 31.4747 24.1497 31.416 24.6724 31.416C25.4617 31.416 26.0324 31.7573 26.3844 32.44C26.4377 32.3973 26.491 32.3547 26.5444 32.312C27.3657 31.7147 28.3737 31.416 29.5684 31.416C30.3257 31.416 30.8697 31.704 31.2004 32.28C31.531 32.856 31.6964 33.8213 31.6964 35.176C31.6964 35.7413 31.6857 36.2107 31.6644 36.584C31.6537 36.9573 31.6217 37.2933 31.5684 37.592C31.515 37.8907 31.4457 38.1253 31.3604 38.296C31.2857 38.4667 31.1737 38.6107 31.0244 38.728C30.8857 38.8347 30.7257 38.9093 30.5444 38.952C30.3737 38.984 30.155 39 29.8884 39C29.483 39 29.1524 38.9467 28.8964 38.84C28.651 38.7333 28.475 38.584 28.3684 38.392C28.2617 38.2 28.2084 37.96 28.2084 37.672V34.776ZM36.0688 39.096C35.2261 39.096 34.5274 38.7547 33.9728 38.072C33.4181 37.3787 33.1408 36.4347 33.1408 35.24C33.1408 34.024 33.4128 33.0587 33.9568 32.344C34.5114 31.6187 35.2154 31.256 36.0688 31.256C36.9328 31.256 37.7328 31.56 38.4688 32.168C38.7568 31.6347 39.2208 31.368 39.8608 31.368C40.4368 31.368 40.8848 31.496 41.2048 31.752C41.5248 31.9973 41.6848 32.456 41.6848 33.128V37.288C41.6848 37.928 41.5514 38.376 41.2847 38.632C41.0181 38.8773 40.5488 39 39.8768 39C39.1728 39 38.7088 38.8027 38.4848 38.408C37.8021 38.8667 36.9968 39.096 36.0688 39.096ZM38.2448 33.704C38.0634 33.3947 37.8288 33.24 37.5408 33.24C37.2634 33.24 37.0394 33.4427 36.8688 33.848C36.6981 34.2533 36.6128 34.7173 36.6128 35.24C36.6128 35.7307 36.6928 36.168 36.8528 36.552C37.0128 36.936 37.2368 37.128 37.5248 37.128C37.8234 37.128 38.0634 36.984 38.2448 36.696V33.704ZM49.6851 36.984C49.9945 36.984 50.2345 37.0267 50.4051 37.112C50.5758 37.1973 50.6931 37.32 50.7571 37.48C50.8211 37.64 50.8531 37.8587 50.8531 38.136C50.8531 38.488 50.7305 38.7227 50.4851 38.84C50.2505 38.9467 49.8291 39 49.2211 39H44.5011C44.1385 39 43.8025 38.8773 43.4931 38.632C43.1945 38.376 43.0451 38.0453 43.0451 37.64C43.0451 37.192 43.1038 36.8453 43.2211 36.6C43.3385 36.344 43.6051 36.008 44.0211 35.592L46.1171 33.384H44.9491C44.3731 33.384 43.9571 33.304 43.7011 33.144C43.4451 32.984 43.3171 32.7227 43.3171 32.36C43.3171 31.9653 43.4078 31.704 43.5891 31.576C43.7705 31.4373 44.1491 31.368 44.7251 31.368H49.5891C49.9838 31.368 50.2931 31.48 50.5171 31.704C50.7518 31.9173 50.8691 32.216 50.8691 32.6C50.8691 32.9627 50.8211 33.24 50.7251 33.432C50.6291 33.624 50.3785 33.9493 49.9731 34.408L47.5571 37L49.6851 36.984ZM54.9594 39.096C54.1167 39.096 53.418 38.7547 52.8634 38.072C52.3087 37.3787 52.0314 36.4347 52.0314 35.24C52.0314 34.024 52.3034 33.0587 52.8474 32.344C53.402 31.6187 54.106 31.256 54.9594 31.256C55.8234 31.256 56.6234 31.56 57.3594 32.168C57.6474 31.6347 58.1114 31.368 58.7514 31.368C59.3274 31.368 59.7754 31.496 60.0954 31.752C60.4154 31.9973 60.5754 32.456 60.5754 33.128V37.288C60.5754 37.928 60.442 38.376 60.1754 38.632C59.9087 38.8773 59.4394 39 58.7674 39C58.0634 39 57.5994 38.8027 57.3754 38.408C56.6927 38.8667 55.8874 39.096 54.9594 39.096ZM57.1354 33.704C56.954 33.3947 56.7194 33.24 56.4314 33.24C56.154 33.24 55.93 33.4427 55.7594 33.848C55.5887 34.2533 55.5034 34.7173 55.5034 35.24C55.5034 35.7307 55.5834 36.168 55.7434 36.552C55.9034 36.936 56.1274 37.128 56.4154 37.128C56.714 37.128 56.954 36.984 57.1354 36.696V33.704ZM62.8798 35.576V33.688C62.6131 33.6773 62.3998 33.6347 62.2398 33.56C62.0798 33.4747 61.9624 33.368 61.8878 33.24C61.8238 33.112 61.7918 32.952 61.7918 32.76C61.7918 32.152 62.1598 31.8213 62.8958 31.768V30.28C62.8958 29.8747 63.1891 29.512 63.7758 29.192C64.3624 28.8613 64.9438 28.696 65.5198 28.696C65.8718 28.696 66.1011 28.7973 66.2078 29C66.3144 29.2027 66.3678 29.5067 66.3678 29.912L66.3838 31.752H66.8158C67.4024 31.752 67.8024 31.832 68.0158 31.992C68.2398 32.1413 68.3518 32.4187 68.3518 32.824C68.3518 32.9947 68.3198 33.1387 68.2558 33.256C68.1918 33.3733 68.0851 33.464 67.9358 33.528C67.7971 33.592 67.6264 33.64 67.4238 33.672C67.2211 33.6933 66.9704 33.704 66.6718 33.704H66.3838V35.464C66.3838 35.6347 66.3891 35.7787 66.3998 35.896C66.4211 36.0027 66.4478 36.088 66.4798 36.152C66.5118 36.216 66.5544 36.2587 66.6078 36.28C66.6718 36.3013 66.7464 36.312 66.8318 36.312C66.9598 36.312 67.0664 36.2693 67.1518 36.184C67.2371 36.088 67.3011 35.9867 67.3438 35.88C67.3971 35.7627 67.4611 35.6613 67.5358 35.576C67.6211 35.48 67.7171 35.432 67.8238 35.432C68.0691 35.432 68.2558 35.4907 68.3838 35.608C68.5224 35.7253 68.5918 35.8693 68.5918 36.04C68.5918 36.328 68.5331 36.6373 68.4158 36.968C68.3091 37.2987 68.1491 37.6187 67.9358 37.928C67.7224 38.2373 67.4238 38.4933 67.0398 38.696C66.6664 38.8987 66.2451 39 65.7758 39C64.7198 39 63.9731 38.7333 63.5358 38.2C63.0984 37.6667 62.8798 36.792 62.8798 35.576Z"/>
</mask>
<path d="M13.496 31.256C14.488 31.256 15.3147 31.4587 15.976 31.864C16.6373 32.2693 16.968 32.712 16.968 33.192C16.968 33.3307 16.9093 33.4587 16.792 33.576C16.6747 33.6933 16.5253 33.752 16.344 33.752C16.184 33.752 16.008 33.6987 15.816 33.592C15.624 33.4747 15.4427 33.352 15.272 33.224C15.1013 33.096 14.8773 32.9787 14.6 32.872C14.3227 32.7653 14.0293 32.712 13.72 32.712C13.304 32.712 13.096 32.84 13.096 33.096C13.096 33.2773 13.2027 33.4213 13.416 33.528C13.6293 33.6347 13.9387 33.7467 14.344 33.864C14.76 33.9813 15.0747 34.0933 15.288 34.2C16.088 34.5093 16.6373 34.8453 16.936 35.208C17.2347 35.56 17.384 36.0293 17.384 36.616C17.384 36.904 17.304 37.192 17.144 37.48C16.984 37.7573 16.744 38.024 16.424 38.28C16.104 38.5253 15.6667 38.728 15.112 38.888C14.568 39.0373 13.944 39.112 13.24 39.112C11.864 39.112 10.8347 38.7973 10.152 38.168C9.82133 37.8587 9.656 37.5387 9.656 37.208C9.656 37.0053 9.72 36.8453 9.848 36.728C9.98667 36.6107 10.1787 36.552 10.424 36.552C10.6693 36.552 11.0427 36.6747 11.544 36.92C12.0453 37.1547 12.5093 37.272 12.936 37.272C13.5227 37.272 13.816 37.128 13.816 36.84C13.816 36.6907 13.6613 36.5733 13.352 36.488C13.0427 36.392 12.6373 36.28 12.136 36.152C11.6347 36.024 11.2347 35.864 10.936 35.672C10.4667 35.4693 10.136 35.2187 9.944 34.92C9.76267 34.6107 9.672 34.2373 9.672 33.8C9.672 33.0533 10.024 32.4453 10.728 31.976C11.4427 31.496 12.3653 31.256 13.496 31.256ZM28.2084 34.776C28.2084 34.1787 27.9684 33.88 27.4884 33.88C27.275 33.88 27.115 34.0027 27.0084 34.248C26.9017 34.4933 26.8484 34.8027 26.8484 35.176C26.8484 35.7413 26.8377 36.2107 26.8164 36.584C26.8057 36.9573 26.7737 37.2933 26.7204 37.592C26.667 37.8907 26.603 38.1253 26.5284 38.296C26.4537 38.4667 26.3524 38.6107 26.2244 38.728C26.0964 38.8347 25.9524 38.9093 25.7924 38.952C25.6324 38.984 25.4297 39 25.1844 39C24.811 39 24.507 38.9467 24.2724 38.84C24.0484 38.7333 23.8884 38.584 23.7924 38.392C23.6964 38.2 23.6484 37.96 23.6484 37.672V34.776C23.6484 34.1787 23.4084 33.88 22.9284 33.88C22.7364 33.88 22.5764 33.992 22.4484 34.216C22.331 34.4293 22.2724 34.712 22.2724 35.064V37.288C22.2724 37.928 22.139 38.376 21.8724 38.632C21.6057 38.8773 21.1364 39 20.4644 39C19.835 39 19.403 38.856 19.1684 38.568C18.9444 38.2693 18.8324 37.784 18.8324 37.112V33.176C18.8324 32.632 18.9764 32.1947 19.2644 31.864C19.563 31.5333 19.9577 31.368 20.4484 31.368C21.323 31.368 21.8777 31.6507 22.1124 32.216C22.5177 31.9173 22.9124 31.7093 23.2964 31.592C23.691 31.4747 24.1497 31.416 24.6724 31.416C25.4617 31.416 26.0324 31.7573 26.3844 32.44C26.4377 32.3973 26.491 32.3547 26.5444 32.312C27.3657 31.7147 28.3737 31.416 29.5684 31.416C30.3257 31.416 30.8697 31.704 31.2004 32.28C31.531 32.856 31.6964 33.8213 31.6964 35.176C31.6964 35.7413 31.6857 36.2107 31.6644 36.584C31.6537 36.9573 31.6217 37.2933 31.5684 37.592C31.515 37.8907 31.4457 38.1253 31.3604 38.296C31.2857 38.4667 31.1737 38.6107 31.0244 38.728C30.8857 38.8347 30.7257 38.9093 30.5444 38.952C30.3737 38.984 30.155 39 29.8884 39C29.483 39 29.1524 38.9467 28.8964 38.84C28.651 38.7333 28.475 38.584 28.3684 38.392C28.2617 38.2 28.2084 37.96 28.2084 37.672V34.776ZM36.0688 39.096C35.2261 39.096 34.5274 38.7547 33.9728 38.072C33.4181 37.3787 33.1408 36.4347 33.1408 35.24C33.1408 34.024 33.4128 33.0587 33.9568 32.344C34.5114 31.6187 35.2154 31.256 36.0688 31.256C36.9328 31.256 37.7328 31.56 38.4688 32.168C38.7568 31.6347 39.2208 31.368 39.8608 31.368C40.4368 31.368 40.8848 31.496 41.2048 31.752C41.5248 31.9973 41.6848 32.456 41.6848 33.128V37.288C41.6848 37.928 41.5514 38.376 41.2847 38.632C41.0181 38.8773 40.5488 39 39.8768 39C39.1728 39 38.7088 38.8027 38.4848 38.408C37.8021 38.8667 36.9968 39.096 36.0688 39.096ZM38.2448 33.704C38.0634 33.3947 37.8288 33.24 37.5408 33.24C37.2634 33.24 37.0394 33.4427 36.8688 33.848C36.6981 34.2533 36.6128 34.7173 36.6128 35.24C36.6128 35.7307 36.6928 36.168 36.8528 36.552C37.0128 36.936 37.2368 37.128 37.5248 37.128C37.8234 37.128 38.0634 36.984 38.2448 36.696V33.704ZM49.6851 36.984C49.9945 36.984 50.2345 37.0267 50.4051 37.112C50.5758 37.1973 50.6931 37.32 50.7571 37.48C50.8211 37.64 50.8531 37.8587 50.8531 38.136C50.8531 38.488 50.7305 38.7227 50.4851 38.84C50.2505 38.9467 49.8291 39 49.2211 39H44.5011C44.1385 39 43.8025 38.8773 43.4931 38.632C43.1945 38.376 43.0451 38.0453 43.0451 37.64C43.0451 37.192 43.1038 36.8453 43.2211 36.6C43.3385 36.344 43.6051 36.008 44.0211 35.592L46.1171 33.384H44.9491C44.3731 33.384 43.9571 33.304 43.7011 33.144C43.4451 32.984 43.3171 32.7227 43.3171 32.36C43.3171 31.9653 43.4078 31.704 43.5891 31.576C43.7705 31.4373 44.1491 31.368 44.7251 31.368H49.5891C49.9838 31.368 50.2931 31.48 50.5171 31.704C50.7518 31.9173 50.8691 32.216 50.8691 32.6C50.8691 32.9627 50.8211 33.24 50.7251 33.432C50.6291 33.624 50.3785 33.9493 49.9731 34.408L47.5571 37L49.6851 36.984ZM54.9594 39.096C54.1167 39.096 53.418 38.7547 52.8634 38.072C52.3087 37.3787 52.0314 36.4347 52.0314 35.24C52.0314 34.024 52.3034 33.0587 52.8474 32.344C53.402 31.6187 54.106 31.256 54.9594 31.256C55.8234 31.256 56.6234 31.56 57.3594 32.168C57.6474 31.6347 58.1114 31.368 58.7514 31.368C59.3274 31.368 59.7754 31.496 60.0954 31.752C60.4154 31.9973 60.5754 32.456 60.5754 33.128V37.288C60.5754 37.928 60.442 38.376 60.1754 38.632C59.9087 38.8773 59.4394 39 58.7674 39C58.0634 39 57.5994 38.8027 57.3754 38.408C56.6927 38.8667 55.8874 39.096 54.9594 39.096ZM57.1354 33.704C56.954 33.3947 56.7194 33.24 56.4314 33.24C56.154 33.24 55.93 33.4427 55.7594 33.848C55.5887 34.2533 55.5034 34.7173 55.5034 35.24C55.5034 35.7307 55.5834 36.168 55.7434 36.552C55.9034 36.936 56.1274 37.128 56.4154 37.128C56.714 37.128 56.954 36.984 57.1354 36.696V33.704ZM62.8798 35.576V33.688C62.6131 33.6773 62.3998 33.6347 62.2398 33.56C62.0798 33.4747 61.9624 33.368 61.8878 33.24C61.8238 33.112 61.7918 32.952 61.7918 32.76C61.7918 32.152 62.1598 31.8213 62.8958 31.768V30.28C62.8958 29.8747 63.1891 29.512 63.7758 29.192C64.3624 28.8613 64.9438 28.696 65.5198 28.696C65.8718 28.696 66.1011 28.7973 66.2078 29C66.3144 29.2027 66.3678 29.5067 66.3678 29.912L66.3838 31.752H66.8158C67.4024 31.752 67.8024 31.832 68.0158 31.992C68.2398 32.1413 68.3518 32.4187 68.3518 32.824C68.3518 32.9947 68.3198 33.1387 68.2558 33.256C68.1918 33.3733 68.0851 33.464 67.9358 33.528C67.7971 33.592 67.6264 33.64 67.4238 33.672C67.2211 33.6933 66.9704 33.704 66.6718 33.704H66.3838V35.464C66.3838 35.6347 66.3891 35.7787 66.3998 35.896C66.4211 36.0027 66.4478 36.088 66.4798 36.152C66.5118 36.216 66.5544 36.2587 66.6078 36.28C66.6718 36.3013 66.7464 36.312 66.8318 36.312C66.9598 36.312 67.0664 36.2693 67.1518 36.184C67.2371 36.088 67.3011 35.9867 67.3438 35.88C67.3971 35.7627 67.4611 35.6613 67.5358 35.576C67.6211 35.48 67.7171 35.432 67.8238 35.432C68.0691 35.432 68.2558 35.4907 68.3838 35.608C68.5224 35.7253 68.5918 35.8693 68.5918 36.04C68.5918 36.328 68.5331 36.6373 68.4158 36.968C68.3091 37.2987 68.1491 37.6187 67.9358 37.928C67.7224 38.2373 67.4238 38.4933 67.0398 38.696C66.6664 38.8987 66.2451 39 65.7758 39C64.7198 39 63.9731 38.7333 63.5358 38.2C63.0984 37.6667 62.8798 36.792 62.8798 35.576Z" fill="#502314"/>
<path d="M15.976 31.864L14.9309 33.5692L14.9309 33.5692L15.976 31.864ZM15.816 33.592L14.7731 35.2986L14.8085 35.3202L14.8447 35.3403L15.816 33.592ZM15.272 33.224L16.472 31.624L16.472 31.624L15.272 33.224ZM14.6 32.872L15.318 31.0053L15.318 31.0053L14.6 32.872ZM13.416 33.528L12.5216 35.3169L12.5216 35.3169L13.416 33.528ZM14.344 33.864L13.7879 35.7852L13.8011 35.7889L14.344 33.864ZM15.288 34.2L14.3936 35.9889L14.4783 36.0312L14.5667 36.0654L15.288 34.2ZM16.936 35.208L15.3921 36.4794L15.4015 36.4908L15.411 36.502L16.936 35.208ZM17.144 37.48L18.8764 38.4794L18.8845 38.4654L18.8923 38.4513L17.144 37.48ZM16.424 38.28L17.6409 39.8672L17.6573 39.8546L17.6734 39.8417L16.424 38.28ZM15.112 38.888L15.6414 40.8167L15.6539 40.8132L15.6663 40.8096L15.112 38.888ZM10.152 38.168L8.78569 39.6285L8.79102 39.6335L8.79639 39.6385L10.152 38.168ZM9.848 36.728L8.55611 35.2012L8.52581 35.2269L8.49655 35.2537L9.848 36.728ZM11.544 36.92L10.6649 38.7164L10.6804 38.724L10.6961 38.7314L11.544 36.92ZM13.352 36.488L12.7592 38.3981L12.7895 38.4075L12.8201 38.416L13.352 36.488ZM12.136 36.152L11.6412 38.0898L11.6412 38.0898L12.136 36.152ZM10.936 35.672L12.0175 33.9896L11.8795 33.9009L11.7289 33.8359L10.936 35.672ZM9.944 34.92L8.2186 35.9314L8.2394 35.9669L8.26164 36.0015L9.944 34.92ZM10.728 31.976L11.8374 33.6401L11.8431 33.6363L10.728 31.976ZM13.496 33.256C14.2205 33.256 14.6606 33.4035 14.9309 33.5692L17.0211 30.1588C15.9688 29.5138 14.7555 29.256 13.496 29.256V33.256ZM14.9309 33.5692C15.0229 33.6256 15.0795 33.6688 15.1104 33.6952C15.1415 33.7218 15.1379 33.7239 15.1177 33.6969C15.0964 33.6684 15.0569 33.6075 15.0233 33.5137C14.9887 33.4172 14.968 33.3068 14.968 33.192H18.968C18.968 31.6635 17.8951 30.6945 17.0211 30.1588L14.9309 33.5692ZM14.968 33.192C14.968 32.9692 15.0173 32.752 15.1059 32.5587C15.1915 32.3718 15.2977 32.2419 15.3778 32.1618L18.2062 34.9902C18.6196 34.5768 18.968 33.9633 18.968 33.192H14.968ZM15.3778 32.1618C15.5068 32.0328 15.6706 31.9212 15.8607 31.8465C16.0473 31.7732 16.2168 31.752 16.344 31.752V35.752C17.0016 35.752 17.6772 35.5193 18.2062 34.9902L15.3778 32.1618ZM16.344 31.752C16.4873 31.752 16.5994 31.776 16.672 31.798C16.7432 31.8195 16.7823 31.8409 16.7873 31.8437L14.8447 35.3403C15.2282 35.5534 15.7409 35.752 16.344 35.752V31.752ZM16.8589 31.8854C16.718 31.7993 16.5893 31.712 16.472 31.624L14.072 34.824C14.296 34.992 14.53 35.15 14.7731 35.2986L16.8589 31.8854ZM16.472 31.624C16.1086 31.3515 15.7054 31.1543 15.318 31.0053L13.882 34.7387C13.961 34.769 14.0147 34.7942 14.048 34.8117C14.0818 34.8294 14.0866 34.8349 14.072 34.824L16.472 31.624ZM15.318 31.0053C14.8022 30.8069 14.2646 30.712 13.72 30.712V34.712C13.7941 34.712 13.8432 34.7237 13.882 34.7387L15.318 31.0053ZM13.72 30.712C13.3719 30.712 12.7738 30.7539 12.2038 31.1047C11.4745 31.5535 11.096 32.3141 11.096 33.096H15.096C15.096 33.3071 15.0513 33.5894 14.8936 33.8806C14.7335 34.176 14.5105 34.3819 14.3002 34.5113C13.9382 34.7341 13.6521 34.712 13.72 34.712V30.712ZM11.096 33.096C11.096 34.2799 11.8818 34.997 12.5216 35.3169L14.3104 31.7391C14.3959 31.7819 14.5978 31.8993 14.7831 32.1495C14.9882 32.4264 15.096 32.7635 15.096 33.096H11.096ZM12.5216 35.3169C12.8957 35.5039 13.3402 35.6555 13.7879 35.7851L14.9001 31.9429C14.5372 31.8378 14.363 31.7654 14.3104 31.7391L12.5216 35.3169ZM13.8011 35.7889C14.1765 35.8948 14.3489 35.9665 14.3936 35.9889L16.1824 32.4111C15.8005 32.2202 15.3435 32.0679 14.8869 31.9391L13.8011 35.7889ZM14.5667 36.0654C14.8891 36.1901 15.1114 36.3015 15.2564 36.3902C15.4066 36.482 15.4258 36.5203 15.3921 36.4794L18.4799 33.9366C17.8483 33.1696 16.9049 32.6809 16.0093 32.3346L14.5667 36.0654ZM15.411 36.502C15.3963 36.4846 15.3846 36.4671 15.3762 36.4517C15.368 36.4366 15.3655 36.4283 15.3661 36.4304C15.3678 36.4357 15.384 36.4903 15.384 36.616H19.384C19.384 35.687 19.1419 34.7165 18.461 33.914L15.411 36.502ZM15.384 36.616C15.384 36.5723 15.3904 36.5364 15.397 36.5127C15.4032 36.4903 15.4068 36.4886 15.3957 36.5087L18.8923 38.4513C19.1933 37.9095 19.384 37.2902 19.384 36.616H15.384ZM15.4116 36.4806C15.4056 36.4909 15.352 36.5763 15.1746 36.7183L17.6734 39.8417C18.136 39.4717 18.5624 39.0237 18.8764 38.4794L15.4116 36.4806ZM15.2071 36.6928C15.1509 36.7359 14.9677 36.8481 14.5577 36.9664L15.6663 40.8096C16.3657 40.6079 17.0571 40.3148 17.6409 39.8672L15.2071 36.6928ZM14.5826 36.9593C14.2475 37.0513 13.8073 37.112 13.24 37.112V41.112C14.0807 41.112 14.8885 41.0233 15.6414 40.8167L14.5826 36.9593ZM13.24 37.112C12.1288 37.112 11.6772 36.8538 11.5076 36.6975L8.79639 39.6385C9.99217 40.7408 11.5992 41.112 13.24 41.112V37.112ZM11.5183 36.7075C11.4787 36.6704 11.5116 36.6904 11.5569 36.778C11.6075 36.8759 11.656 37.026 11.656 37.208H7.656C7.656 38.2731 8.20517 39.0855 8.78569 39.6285L11.5183 36.7075ZM11.656 37.208C11.656 37.3171 11.6385 37.4848 11.561 37.6788C11.4806 37.8797 11.355 38.0598 11.1994 38.2023L8.49655 35.2537C7.88527 35.814 7.656 36.5473 7.656 37.208H11.656ZM11.1399 38.2548C10.808 38.5356 10.4852 38.552 10.424 38.552V34.552C9.87211 34.552 9.16536 34.6857 8.55611 35.2012L11.1399 38.2548ZM10.424 38.552C10.3239 38.552 10.2596 38.5401 10.243 38.5368C10.2242 38.5331 10.2296 38.5329 10.2637 38.5441C10.3354 38.5676 10.4654 38.6188 10.6649 38.7164L12.4231 35.1236C11.9117 34.8733 11.1721 34.552 10.424 34.552V38.552ZM10.6961 38.7314C11.387 39.0548 12.1428 39.272 12.936 39.272V35.272C12.8759 35.272 12.7036 35.2545 12.3919 35.1086L10.6961 38.7314ZM12.936 39.272C13.3288 39.272 13.9174 39.2342 14.4773 38.9593C14.785 38.8083 15.1406 38.5575 15.4156 38.1525C15.7004 37.7331 15.816 37.2696 15.816 36.84H11.816C11.816 36.5544 11.895 36.2169 12.1064 35.9055C12.3081 35.6085 12.5536 35.4477 12.7147 35.3687C12.9813 35.2378 13.1299 35.272 12.936 35.272V39.272ZM15.816 36.84C15.816 35.9598 15.3212 35.3595 14.9088 35.0466C14.5394 34.7664 14.1444 34.6319 13.8839 34.56L12.8201 38.416C12.8689 38.4294 12.7059 38.3962 12.4912 38.2334C12.2334 38.0378 11.816 37.5709 11.816 36.84H15.816ZM13.9448 34.5779C13.5898 34.4677 13.1481 34.3463 12.6308 34.2142L11.6412 38.0898C12.1265 38.2137 12.4955 38.3163 12.7592 38.3981L13.9448 34.5779ZM12.6308 34.2142C12.2512 34.1173 12.0734 34.0256 12.0175 33.9896L9.85449 37.3544C10.3959 37.7024 11.0181 37.9307 11.6412 38.0898L12.6308 34.2142ZM11.7289 33.8359C11.6092 33.7842 11.5558 33.747 11.5442 33.7382C11.5348 33.7311 11.5762 33.7604 11.6264 33.8385L8.26164 36.0015C8.74385 36.7516 9.462 37.214 10.1431 37.5081L11.7289 33.8359ZM11.6694 33.9086C11.6841 33.9337 11.6861 33.9467 11.6835 33.936C11.6805 33.9234 11.672 33.8811 11.672 33.8H7.672C7.672 34.515 7.82178 35.2545 8.2186 35.9314L11.6694 33.9086ZM11.672 33.8C11.672 33.7717 11.6752 33.7635 11.6737 33.769C11.6721 33.7752 11.669 33.7823 11.6669 33.7861C11.6609 33.7963 11.6891 33.739 11.8374 33.6401L9.6186 30.3119C8.44486 31.0944 7.672 32.2868 7.672 33.8H11.672ZM11.8431 33.6363C12.1391 33.4375 12.6398 33.256 13.496 33.256V29.256C12.0909 29.256 10.7462 29.5545 9.61289 30.3157L11.8431 33.6363ZM26.8164 36.584L24.8196 36.4699L24.818 36.4984L24.8172 36.5269L26.8164 36.584ZM26.7204 37.592L24.7515 37.2404L24.7515 37.2404L26.7204 37.592ZM26.5284 38.296L28.3607 39.0976L28.3607 39.0976L26.5284 38.296ZM26.2244 38.728L27.5047 40.2644L27.541 40.2342L27.5758 40.2023L26.2244 38.728ZM25.7924 38.952L26.1846 40.9132L26.2466 40.9008L26.3077 40.8845L25.7924 38.952ZM24.2724 38.84L23.4125 40.6457L23.4286 40.6534L23.4448 40.6607L24.2724 38.84ZM23.7924 38.392L25.5812 37.4976L25.5812 37.4976L23.7924 38.392ZM22.4484 34.216L20.7119 33.2237L20.7038 33.2379L20.6959 33.2522L22.4484 34.216ZM21.8724 38.632L23.2265 40.1039L23.2421 40.0895L23.2574 40.0748L21.8724 38.632ZM19.1684 38.568L17.5684 39.768L17.5925 39.8002L17.6179 39.8313L19.1684 38.568ZM19.2644 31.864L17.7802 30.5234L17.7681 30.5368L17.7562 30.5504L19.2644 31.864ZM22.1124 32.216L20.2652 32.9828L21.2438 35.3403L23.2988 33.8261L22.1124 32.216ZM23.2964 31.592L22.7264 29.6749L22.7192 29.6771L22.7119 29.6793L23.2964 31.592ZM26.3844 32.44L24.6068 33.3566L25.7263 35.5277L27.6338 34.0017L26.3844 32.44ZM26.5444 32.312L25.368 30.6945L25.3309 30.7216L25.295 30.7503L26.5444 32.312ZM31.2004 32.28L29.4659 33.2757L29.4659 33.2757L31.2004 32.28ZM31.6644 36.584L29.6676 36.4699L29.666 36.4984L29.6652 36.5269L31.6644 36.584ZM31.5684 37.592L29.5995 37.2404L29.5995 37.2404L31.5684 37.592ZM31.3604 38.296L29.5715 37.4016L29.5486 37.4474L29.5281 37.4944L31.3604 38.296ZM31.0244 38.728L32.2438 40.3132L32.2519 40.307L32.26 40.3006L31.0244 38.728ZM30.5444 38.952L30.913 40.9177L30.9579 40.9093L31.0025 40.8988L30.5444 38.952ZM28.8964 38.84L28.0989 40.6741L28.113 40.6803L28.1271 40.6862L28.8964 38.84ZM28.3684 38.392L30.1167 37.4207L30.1167 37.4207L28.3684 38.392ZM30.2084 34.776C30.2084 34.2621 30.1138 33.5063 29.5874 32.8512C28.9939 32.1126 28.1667 31.88 27.4884 31.88V35.88C27.4045 35.88 27.2392 35.8672 27.0371 35.7834C26.8227 35.6944 26.6233 35.5483 26.4694 35.3568C26.183 35.0004 26.2084 34.6926 26.2084 34.776H30.2084ZM27.4884 31.88C26.9691 31.88 26.4418 32.0396 25.9915 32.3848C25.5682 32.7093 25.3202 33.1147 25.1742 33.4505L28.8425 35.0455C28.8032 35.1359 28.6886 35.3573 28.4252 35.5592C28.135 35.7818 27.7943 35.88 27.4884 35.88V31.88ZM25.1742 33.4505C24.924 34.0262 24.8484 34.6295 24.8484 35.176H28.8484C28.8484 35.0826 28.8552 35.0276 28.8593 35.0038C28.8634 34.9802 28.8628 34.9989 28.8425 35.0455L25.1742 33.4505ZM24.8484 35.176C24.8484 35.7204 24.838 36.1485 24.8196 36.4699L28.8131 36.6981C28.8374 36.2729 28.8484 35.7623 28.8484 35.176H24.8484ZM24.8172 36.5269C24.8087 36.823 24.7841 37.0582 24.7515 37.2404L28.6892 37.9436C28.7634 37.5285 28.8027 37.0916 28.8156 36.6411L24.8172 36.5269ZM24.7515 37.2404C24.7329 37.3446 24.7159 37.418 24.7028 37.4658C24.6892 37.5158 24.6846 37.5205 24.6961 37.4944L28.3607 39.0976C28.5252 38.7215 28.6232 38.3133 28.6892 37.9436L24.7515 37.2404ZM24.6961 37.4944C24.7248 37.4286 24.7809 37.3381 24.8729 37.2537L27.5758 40.2023C27.9239 39.8833 28.1826 39.5047 28.3607 39.0976L24.6961 37.4944ZM24.944 37.1916C25.0378 37.1134 25.1545 37.0522 25.277 37.0195L26.3077 40.8845C26.7503 40.7665 27.155 40.5559 27.5047 40.2644L24.944 37.1916ZM25.4001 36.9908C25.4138 36.9881 25.4037 36.991 25.363 36.9942C25.3234 36.9973 25.2648 37 25.1844 37V41C25.5027 41 25.8484 40.9804 26.1846 40.9132L25.4001 36.9908ZM25.1844 37C25.0904 37 25.0391 36.9931 25.022 36.9901C25.0047 36.9871 25.0369 36.9906 25.1 37.0193L23.4448 40.6607C24.0288 40.9262 24.6436 41 25.1844 41V37ZM25.1322 37.0343C25.1808 37.0574 25.2609 37.1036 25.349 37.1859C25.4396 37.2704 25.5206 37.3764 25.5812 37.4976L22.0035 39.2864C22.3291 39.9377 22.8515 40.3786 23.4125 40.6457L25.1322 37.0343ZM25.5812 37.4976C25.6229 37.581 25.6395 37.6454 25.6455 37.6758C25.6514 37.7052 25.6484 37.7067 25.6484 37.672H21.6484C21.6484 38.1693 21.7296 38.7385 22.0035 39.2864L25.5812 37.4976ZM25.6484 37.672V34.776H21.6484V37.672H25.6484ZM25.6484 34.776C25.6484 34.2621 25.5538 33.5063 25.0274 32.8512C24.4339 32.1126 23.6067 31.88 22.9284 31.88V35.88C22.8445 35.88 22.6792 35.8672 22.4771 35.7834C22.2627 35.6944 22.0633 35.5483 21.9094 35.3568C21.623 35.0004 21.6484 34.6926 21.6484 34.776H25.6484ZM22.9284 31.88C21.7763 31.88 21.0568 32.6202 20.7119 33.2237L24.1849 35.2083C24.1473 35.274 24.0377 35.444 23.8113 35.6025C23.5613 35.7774 23.2502 35.88 22.9284 35.88V31.88ZM20.6959 33.2522C20.3598 33.8633 20.2724 34.5155 20.2724 35.064H24.2724C24.2724 34.996 24.2783 34.9768 24.2746 34.9944C24.2708 35.013 24.254 35.0831 24.2008 35.1798L20.6959 33.2522ZM20.2724 35.064V37.288H24.2724V35.064H20.2724ZM20.2724 37.288C20.2724 37.3798 20.2675 37.4455 20.2622 37.4887C20.2569 37.5323 20.2521 37.5449 20.2555 37.5335C20.2619 37.5119 20.3131 37.3565 20.4873 37.1892L23.2574 40.0748C24.1224 39.2444 24.2724 38.1 24.2724 37.288H20.2724ZM20.5183 37.1601C20.6064 37.079 20.6869 37.0307 20.7399 37.0041C20.7918 36.9782 20.8208 36.9714 20.8146 36.973C20.8087 36.9746 20.7781 36.9818 20.7167 36.9885C20.6557 36.995 20.5727 37 20.4644 37V41C21.2565 41 22.3828 40.88 23.2265 40.1039L20.5183 37.1601ZM20.4644 37C20.2887 37 20.2516 36.9782 20.3008 36.9946C20.3633 37.0154 20.5475 37.0943 20.7188 37.3047L17.6179 39.8313C18.4299 40.8279 19.6385 41 20.4644 41V37ZM20.7684 37.368C20.8696 37.503 20.8783 37.5874 20.8652 37.5303C20.8526 37.4761 20.8324 37.3454 20.8324 37.112H16.8324C16.8324 37.9123 16.9476 38.9403 17.5684 39.768L20.7684 37.368ZM20.8324 37.112V33.176H16.8324V37.112H20.8324ZM20.8324 33.176C20.8324 33.079 20.8453 33.0495 20.84 33.0655C20.8373 33.0738 20.8309 33.0906 20.8185 33.1125C20.8061 33.1347 20.7904 33.157 20.7725 33.1776L17.7562 30.5504C17.08 31.3269 16.8324 32.2697 16.8324 33.176H20.8324ZM20.7486 33.2046C20.7091 33.2483 20.6424 33.3009 20.5571 33.3367C20.4765 33.3705 20.4298 33.368 20.4484 33.368V29.368C19.4559 29.368 18.4989 29.7277 17.7802 30.5234L20.7486 33.2046ZM20.4484 33.368C20.6902 33.368 20.7066 33.41 20.6123 33.3619C20.5582 33.3344 20.4846 33.2852 20.4124 33.2077C20.3399 33.1297 20.2926 33.0487 20.2652 32.9828L23.9596 31.4492C23.2837 29.8211 21.7229 29.368 20.4484 29.368V33.368ZM23.2988 33.8261C23.5663 33.629 23.7601 33.5416 23.8808 33.5047L22.7119 29.6793C22.0646 29.8771 21.4691 30.2057 20.926 30.6059L23.2988 33.8261ZM23.8663 33.5091C24.034 33.4592 24.2934 33.416 24.6724 33.416V29.416C24.006 29.416 23.348 29.4901 22.7264 29.6749L23.8663 33.5091ZM24.6724 33.416C24.7258 33.416 24.7442 33.4218 24.7365 33.4198C24.727 33.4174 24.7 33.4089 24.6657 33.3884C24.6312 33.3678 24.6067 33.3454 24.5936 33.3308C24.5816 33.3176 24.5886 33.3214 24.6068 33.3566L28.162 31.5234C27.8421 30.9031 27.3714 30.3458 26.719 29.9556C26.0697 29.5672 25.3605 29.416 24.6724 29.416V33.416ZM27.6338 34.0017C27.6871 33.9591 27.7404 33.9164 27.7938 33.8737L25.295 30.7503C25.2417 30.7929 25.1883 30.8356 25.135 30.8783L27.6338 34.0017ZM27.7207 33.9295C28.1429 33.6224 28.7195 33.416 29.5684 33.416V29.416C28.0279 29.416 26.5885 29.8069 25.368 30.6945L27.7207 33.9295ZM29.5684 33.416C29.6949 33.416 29.684 33.4395 29.6086 33.3996C29.5723 33.3803 29.5366 33.3543 29.5069 33.3249C29.4929 33.311 29.4825 33.2988 29.4755 33.2896C29.4685 33.2804 29.4656 33.2753 29.4659 33.2757L32.9349 31.2843C32.1913 29.989 30.9213 29.416 29.5684 29.416V33.416ZM29.4659 33.2757C29.4657 33.2754 29.4855 33.3104 29.5135 33.3977C29.5413 33.484 29.5725 33.6069 29.6011 33.7736C29.659 34.1116 29.6964 34.5723 29.6964 35.176H33.6964C33.6964 33.7653 33.543 32.3436 32.9349 31.2843L29.4659 33.2757ZM29.6964 35.176C29.6964 35.7204 29.686 36.1485 29.6676 36.4699L33.6611 36.6981C33.6854 36.2729 33.6964 35.7623 33.6964 35.176H29.6964ZM29.6652 36.5269C29.6567 36.823 29.6321 37.0582 29.5995 37.2404L33.5372 37.9436C33.6114 37.5285 33.6507 37.0916 33.6636 36.6411L29.6652 36.5269ZM29.5995 37.2404C29.5829 37.3336 29.5679 37.3931 29.5583 37.4253C29.5482 37.4596 29.5493 37.446 29.5715 37.4016L33.1492 39.1904C33.3554 38.7781 33.4676 38.3337 33.5372 37.9436L29.5995 37.2404ZM29.5281 37.4944C29.5883 37.3567 29.6839 37.2377 29.7887 37.1554L32.26 40.3006C32.6635 39.9836 32.9831 39.5767 33.1927 39.0976L29.5281 37.4944ZM29.805 37.1428C29.9059 37.0651 30.0093 37.0233 30.0863 37.0052L31.0025 40.8988C31.4421 40.7954 31.8655 40.6042 32.2438 40.3132L29.805 37.1428ZM30.1758 36.9863C30.1802 36.9854 30.1595 36.9895 30.1064 36.9933C30.0547 36.9971 29.983 37 29.8884 37V41C30.2206 41 30.5745 40.9812 30.913 40.9177L30.1758 36.9863ZM29.8884 37C29.771 37 29.6957 36.9921 29.6548 36.9855C29.6135 36.9788 29.6227 36.976 29.6656 36.9938L28.1271 40.6862C28.7121 40.9299 29.3304 41 29.8884 41V37ZM29.6938 37.0059C29.7615 37.0353 29.9666 37.1505 30.1167 37.4207L26.6201 39.3633C26.9835 40.0175 27.5406 40.4314 28.0989 40.6741L29.6938 37.0059ZM30.1167 37.4207C30.2186 37.6042 30.2084 37.7226 30.2084 37.672H26.2084C26.2084 38.1974 26.3048 38.7958 26.6201 39.3633L30.1167 37.4207ZM30.2084 37.672V34.776H26.2084V37.672H30.2084ZM33.9728 38.072L32.411 39.3214L32.4157 39.3273L32.4205 39.3332L33.9728 38.072ZM33.9568 32.344L32.368 31.1291L32.3653 31.1326L33.9568 32.344ZM38.4688 32.168L37.195 33.7099L39.0718 35.2604L40.2286 33.1183L38.4688 32.168ZM41.2048 31.752L39.9554 33.3137L39.9715 33.3266L39.9879 33.3392L41.2048 31.752ZM41.2847 38.632L42.6389 40.1039L42.6545 40.0895L42.6698 40.0748L41.2847 38.632ZM38.4848 38.408L40.2241 37.4208L39.1596 35.5451L37.3694 36.7479L38.4848 38.408ZM38.2448 33.704H40.2448V33.161L39.9701 32.6926L38.2448 33.704ZM36.8688 33.848L35.0255 33.0719L35.0255 33.0719L36.8688 33.848ZM36.8528 36.552L38.6989 35.7828L38.6989 35.7828L36.8528 36.552ZM38.2448 36.696L39.9372 37.7616L40.2448 37.2732V36.696H38.2448ZM36.0688 37.096C35.8582 37.096 35.7191 37.0497 35.525 36.8108L32.4205 39.3332C33.3358 40.4596 34.594 41.096 36.0688 41.096V37.096ZM35.5345 36.8226C35.3479 36.5894 35.1408 36.1371 35.1408 35.24H31.1408C31.1408 36.7323 31.4883 38.1679 32.411 39.3214L35.5345 36.8226ZM35.1408 35.24C35.1408 34.3084 35.3491 33.8169 35.5482 33.5554L32.3653 31.1326C31.4764 32.3004 31.1408 33.7396 31.1408 35.24H35.1408ZM35.5455 33.5589C35.7524 33.2882 35.8872 33.256 36.0688 33.256V29.256C34.5436 29.256 33.2704 29.9491 32.368 31.1291L35.5455 33.5589ZM36.0688 33.256C36.4183 33.256 36.7773 33.3649 37.195 33.7099L39.7425 30.6261C38.6882 29.7551 37.4472 29.256 36.0688 29.256V33.256ZM40.2286 33.1183C40.2199 33.1343 40.1608 33.2265 40.0293 33.302C39.9037 33.3742 39.8219 33.368 39.8608 33.368V29.368C39.2596 29.368 38.6258 29.4951 38.0362 29.834C37.4407 30.1762 37.0056 30.6684 36.7089 31.2177L40.2286 33.1183ZM39.8608 33.368C40.0049 33.368 40.0703 33.3845 40.0793 33.387C40.0824 33.3879 40.0698 33.3846 40.0463 33.3729C40.0223 33.3608 39.9905 33.3418 39.9554 33.3137L42.4541 30.1903C41.6602 29.5551 40.71 29.368 39.8608 29.368V33.368ZM39.9879 33.3392C39.8898 33.264 39.8153 33.1804 39.7623 33.1027C39.7108 33.0271 39.6862 32.967 39.6764 32.9387C39.6602 32.8923 39.6848 32.9367 39.6848 33.128H43.6848C43.6848 32.2433 43.4882 30.9825 42.4216 30.1648L39.9879 33.3392ZM39.6848 33.128V37.288H43.6848V33.128H39.6848ZM39.6848 37.288C39.6848 37.3798 39.6799 37.4455 39.6746 37.4887C39.6693 37.5323 39.6645 37.5449 39.6678 37.5335C39.6743 37.5119 39.7254 37.3565 39.8997 37.1892L42.6698 40.0748C43.5348 39.2444 43.6848 38.1 43.6848 37.288H39.6848ZM39.9306 37.1601C40.0188 37.079 40.0992 37.0307 40.1523 37.0041C40.2042 36.9782 40.2332 36.9714 40.227 36.973C40.221 36.9746 40.1905 36.9818 40.129 36.9885C40.0681 36.995 39.9851 37 39.8768 37V41C40.6689 41 41.7952 40.88 42.6389 40.1039L39.9306 37.1601ZM39.8768 37C39.6945 37 39.6906 36.972 39.7835 37.0115C39.8362 37.034 39.9158 37.0766 40.0022 37.151C40.0905 37.2269 40.1666 37.3195 40.2241 37.4208L36.7454 39.3952C37.4944 40.7149 38.8796 41 39.8768 41V37ZM37.3694 36.7479C37.0577 36.9573 36.6522 37.096 36.0688 37.096V41.096C37.3413 41.096 38.5464 40.776 39.6001 40.0681L37.3694 36.7479ZM39.9701 32.6926C39.5321 31.9454 38.7199 31.24 37.5408 31.24V35.24C37.3037 35.24 37.0499 35.1695 36.8321 35.0259C36.6329 34.8946 36.5423 34.7545 36.5194 34.7154L39.9701 32.6926ZM37.5408 31.24C36.0362 31.24 35.3028 32.4132 35.0255 33.0719L38.712 34.6241C38.7316 34.5777 38.687 34.7118 38.5066 34.8751C38.2865 35.0742 37.944 35.24 37.5408 35.24V31.24ZM35.0255 33.0719C34.7338 33.7646 34.6128 34.5001 34.6128 35.24H38.6128C38.6128 34.9346 38.6624 34.7421 38.712 34.6241L35.0255 33.0719ZM34.6128 35.24C34.6128 35.9481 34.7285 36.6539 35.0066 37.3212L38.6989 35.7828C38.657 35.6821 38.6128 35.5132 38.6128 35.24H34.6128ZM35.0066 37.3212C35.3154 38.0623 36.0786 39.128 37.5248 39.128V35.128C37.8708 35.128 38.2015 35.2591 38.4423 35.4655C38.5469 35.5551 38.6124 35.6399 38.6489 35.6946C38.685 35.7488 38.6989 35.7828 38.6989 35.7828L35.0066 37.3212ZM37.5248 39.128C38.6166 39.128 39.45 38.5354 39.9372 37.7616L36.5523 35.6304C36.5932 35.5654 36.6987 35.4256 36.8998 35.305C37.1116 35.1779 37.3369 35.128 37.5248 35.128V39.128ZM40.2448 36.696V33.704H36.2448V36.696H40.2448ZM49.6851 36.984V34.984H49.6776L49.6701 34.9841L49.6851 36.984ZM50.4051 37.112L49.5107 38.9009L49.5107 38.9009L50.4051 37.112ZM50.7571 37.48L52.6141 36.7372L52.6141 36.7372L50.7571 37.48ZM50.4851 38.84L51.3127 40.6607L51.3305 40.6527L51.348 40.6443L50.4851 38.84ZM43.4931 38.632L42.1915 40.1505L42.2205 40.1753L42.2503 40.199L43.4931 38.632ZM43.2211 36.6L45.0254 37.4629L45.0324 37.4482L45.0393 37.4333L43.2211 36.6ZM44.0211 35.592L45.4353 37.0062L45.4537 36.9878L45.4716 36.9689L44.0211 35.592ZM46.1171 33.384L47.5676 34.7609L50.7733 31.384H46.1171V33.384ZM43.7011 33.144L44.7611 31.448L44.7611 31.448L43.7011 33.144ZM43.5891 31.576L44.7425 33.2099L44.7737 33.1879L44.804 33.1647L43.5891 31.576ZM50.5171 31.704L49.1029 33.1182L49.1366 33.1519L49.1718 33.1839L50.5171 31.704ZM49.9731 34.408L51.4361 35.7717L51.4542 35.7523L51.4718 35.7324L49.9731 34.408ZM47.5571 37L46.0941 35.6363L42.9263 39.0349L47.5722 38.9999L47.5571 37ZM49.6851 38.984C49.7521 38.984 49.7685 38.9889 49.7471 38.9851C49.7276 38.9817 49.6372 38.9641 49.5107 38.9009L51.2996 35.3231C50.7305 35.0386 50.1338 34.984 49.6851 34.984V38.984ZM49.5107 38.9009C49.4157 38.8534 49.2945 38.7745 49.1758 38.6504C49.0549 38.524 48.9617 38.3767 48.9002 38.2228L52.6141 36.7372C52.3482 36.0725 51.8577 35.6022 51.2996 35.3231L49.5107 38.9009ZM48.9002 38.2228C48.8794 38.171 48.8673 38.1296 48.8605 38.1025C48.8536 38.0753 48.8509 38.0582 48.8502 38.0536C48.8492 38.0465 48.8531 38.071 48.8531 38.136H52.8531C52.8531 37.7405 52.8126 37.2335 52.6141 36.7372L48.9002 38.2228ZM48.8531 38.136C48.8531 38.0914 48.8595 37.8966 48.9887 37.6495C49.1334 37.3726 49.3661 37.1582 49.6222 37.0357L51.348 40.6443C52.5027 40.092 52.8531 38.9879 52.8531 38.136H48.8531ZM49.6575 37.0193C49.7413 36.9812 49.7957 36.9681 49.8002 36.967C49.8075 36.9652 49.7905 36.9697 49.742 36.9758C49.6416 36.9885 49.4737 37 49.2211 37V41C49.8284 41 50.6451 40.9642 51.3127 40.6607L49.6575 37.0193ZM49.2211 37H44.5011V41H49.2211V37ZM44.5011 37C44.5504 37 44.6081 37.0093 44.663 37.0293C44.7159 37.0486 44.7401 37.0683 44.7359 37.065L42.2503 40.199C42.8798 40.6982 43.6463 41 44.5011 41V37ZM44.7947 37.1135C44.8489 37.16 44.924 37.2451 44.9799 37.3688C45.035 37.491 45.0451 37.5922 45.0451 37.64H41.0451C41.0451 38.6088 41.4343 39.5015 42.1915 40.1505L44.7947 37.1135ZM45.0451 37.64C45.0451 37.4991 45.0547 37.4157 45.0611 37.3777C45.0679 37.3372 45.0664 37.3771 45.0254 37.4629L41.4169 35.7371C41.1133 36.3718 41.0451 37.0633 41.0451 37.64H45.0451ZM45.0393 37.4333C45.0057 37.5066 44.9961 37.4996 45.0757 37.3993C45.1478 37.3085 45.2631 37.1785 45.4353 37.0062L42.6069 34.1778C42.1653 34.6194 41.6782 35.1663 41.403 35.7667L45.0393 37.4333ZM45.4716 36.9689L47.5676 34.7609L44.6666 32.0071L42.5706 34.2151L45.4716 36.9689ZM46.1171 31.384H44.9491V35.384H46.1171V31.384ZM44.9491 31.384C44.8506 31.384 44.7709 31.3806 44.7079 31.3755C44.6445 31.3704 44.604 31.3641 44.5828 31.36C44.5611 31.3558 44.5678 31.3555 44.5958 31.3655C44.6235 31.3754 44.6835 31.3995 44.7611 31.448L42.6411 34.84C43.3921 35.3094 44.2843 35.384 44.9491 35.384V31.384ZM44.7611 31.448C44.9375 31.5582 45.1026 31.7305 45.2093 31.9483C45.3083 32.1505 45.3171 32.3097 45.3171 32.36H41.3171C41.3171 33.2508 41.6755 34.2365 42.6411 34.84L44.7611 31.448ZM45.3171 32.36C45.3171 32.2987 45.3264 32.3744 45.2746 32.5235C45.217 32.6896 45.0697 32.979 44.7425 33.2099L42.4358 29.9421C41.4202 30.6589 41.3171 31.8069 41.3171 32.36H45.3171ZM44.804 33.1647C44.6517 33.2812 44.5207 33.3368 44.4585 33.3599C44.3934 33.384 44.3583 33.3893 44.3693 33.3873C44.3781 33.3857 44.4113 33.3804 44.475 33.3757C44.5376 33.3712 44.6201 33.368 44.7251 33.368V29.368C44.3694 29.368 43.9999 29.3884 43.6489 29.4527C43.3352 29.5101 42.8324 29.6369 42.3742 29.9873L44.804 33.1647ZM44.7251 33.368H49.5891V29.368H44.7251V33.368ZM49.5891 33.368C49.5994 33.368 49.5386 33.3696 49.4362 33.3325C49.3261 33.2927 49.2063 33.2216 49.1029 33.1182L51.9313 30.2898C51.2449 29.6033 50.3763 29.368 49.5891 29.368V33.368ZM49.1718 33.1839C49.0591 33.0814 48.9719 32.9523 48.9196 32.8193C48.8707 32.6948 48.8691 32.6102 48.8691 32.6H52.8691C52.8691 31.7813 52.6007 30.8952 51.8625 30.2241L49.1718 33.1839ZM48.8691 32.6C48.8691 32.647 48.8676 32.6821 48.8657 32.7064C48.8639 32.7309 48.8621 32.741 48.8624 32.7389C48.8628 32.737 48.8661 32.7179 48.8761 32.6854C48.8861 32.6529 48.9043 32.6015 48.9363 32.5376L52.514 34.3264C52.8134 33.7276 52.8691 33.0864 52.8691 32.6H48.8691ZM48.9363 32.5376C48.9627 32.4847 48.9779 32.4649 48.9627 32.4877C48.9502 32.5063 48.9245 32.5426 48.8808 32.5993C48.7926 32.7138 48.6603 32.8733 48.4745 33.0836L51.4718 35.7324C51.8535 35.3004 52.283 34.7884 52.514 34.3264L48.9363 32.5376ZM48.5101 33.0443L46.0941 35.6363L49.0201 38.3637L51.4361 35.7717L48.5101 33.0443ZM47.5722 38.9999L49.7002 38.9839L49.6701 34.9841L47.5421 35.0001L47.5722 38.9999ZM52.8634 38.072L51.3016 39.3214L51.3064 39.3273L51.3111 39.3332L52.8634 38.072ZM52.8474 32.344L51.2587 31.1291L51.256 31.1326L52.8474 32.344ZM57.3594 32.168L56.0856 33.7099L57.9625 35.2604L59.1192 33.1183L57.3594 32.168ZM60.0954 31.752L58.846 33.3137L58.8621 33.3266L58.8785 33.3392L60.0954 31.752ZM60.1754 38.632L61.5295 40.1039L61.5451 40.0895L61.5604 40.0748L60.1754 38.632ZM57.3754 38.408L59.1147 37.4208L58.0502 35.5451L56.26 36.7479L57.3754 38.408ZM57.1354 33.704H59.1354V33.161L58.8608 32.6926L57.1354 33.704ZM55.7594 33.848L53.9161 33.0719L53.9161 33.0719L55.7594 33.848ZM55.7434 36.552L57.5895 35.7828L57.5895 35.7828L55.7434 36.552ZM57.1354 36.696L58.8278 37.7616L59.1354 37.2732V36.696H57.1354ZM54.9594 37.096C54.7488 37.096 54.6097 37.0497 54.4156 36.8108L51.3111 39.3332C52.2264 40.4596 53.4846 41.096 54.9594 41.096V37.096ZM54.4251 36.8226C54.2385 36.5894 54.0314 36.1371 54.0314 35.24H50.0314C50.0314 36.7323 50.3789 38.1679 51.3016 39.3214L54.4251 36.8226ZM54.0314 35.24C54.0314 34.3084 54.2397 33.8169 54.4388 33.5554L51.256 31.1326C50.3671 32.3004 50.0314 33.7396 50.0314 35.24H54.0314ZM54.4361 33.5589C54.6431 33.2882 54.7779 33.256 54.9594 33.256V29.256C53.4342 29.256 52.161 29.9491 51.2587 31.1291L54.4361 33.5589ZM54.9594 33.256C55.3089 33.256 55.6679 33.3649 56.0856 33.7099L58.6331 30.6261C57.5788 29.7551 56.3378 29.256 54.9594 29.256V33.256ZM59.1192 33.1183C59.1106 33.1343 59.0514 33.2265 58.9199 33.302C58.7943 33.3742 58.7125 33.368 58.7514 33.368V29.368C58.1503 29.368 57.5164 29.4951 56.9268 29.834C56.3313 30.1762 55.8962 30.6684 55.5996 31.2177L59.1192 33.1183ZM58.7514 33.368C58.8955 33.368 58.9609 33.3845 58.9699 33.387C58.973 33.3879 58.9605 33.3846 58.9369 33.3729C58.9129 33.3608 58.8811 33.3418 58.846 33.3137L61.3448 30.1903C60.5508 29.5551 59.6006 29.368 58.7514 29.368V33.368ZM58.8785 33.3392C58.7804 33.264 58.7059 33.1804 58.6529 33.1027C58.6014 33.0271 58.5768 32.967 58.567 32.9387C58.5508 32.8923 58.5754 32.9367 58.5754 33.128H62.5754C62.5754 32.2433 62.3788 30.9825 61.3122 30.1648L58.8785 33.3392ZM58.5754 33.128V37.288H62.5754V33.128H58.5754ZM58.5754 37.288C58.5754 37.3798 58.5705 37.4455 58.5652 37.4887C58.5599 37.5323 58.5551 37.5449 58.5585 37.5335C58.5649 37.5119 58.6161 37.3565 58.7903 37.1892L61.5604 40.0748C62.4254 39.2444 62.5754 38.1 62.5754 37.288H58.5754ZM58.8213 37.1601C58.9094 37.079 58.9899 37.0307 59.0429 37.0041C59.0948 36.9782 59.1238 36.9714 59.1176 36.973C59.1117 36.9746 59.0811 36.9818 59.0197 36.9885C58.9587 36.995 58.8757 37 58.7674 37V41C59.5595 41 60.6858 40.88 61.5295 40.1039L58.8213 37.1601ZM58.7674 37C58.5851 37 58.5812 36.972 58.6741 37.0115C58.7269 37.034 58.8064 37.0766 58.8929 37.151C58.9811 37.2269 59.0573 37.3195 59.1147 37.4208L55.636 39.3952C56.385 40.7149 57.7703 41 58.7674 41V37ZM56.26 36.7479C55.9483 36.9573 55.5428 37.096 54.9594 37.096V41.096C56.2319 41.096 57.4371 40.776 58.4908 40.0681L56.26 36.7479ZM58.8608 32.6926C58.4228 31.9454 57.6105 31.24 56.4314 31.24V35.24C56.1944 35.24 55.9406 35.1695 55.7227 35.0259C55.5235 34.8946 55.4329 34.7545 55.41 34.7154L58.8608 32.6926ZM56.4314 31.24C54.9268 31.24 54.1935 32.4132 53.9161 33.0719L57.6026 34.6241C57.6222 34.5777 57.5777 34.7118 57.3972 34.8751C57.1771 35.0742 56.8346 35.24 56.4314 35.24V31.24ZM53.9161 33.0719C53.6244 33.7646 53.5034 34.5001 53.5034 35.24H57.5034C57.5034 34.9346 57.553 34.7421 57.6026 34.6241L53.9161 33.0719ZM53.5034 35.24C53.5034 35.9481 53.6191 36.6539 53.8972 37.3212L57.5895 35.7828C57.5476 35.6821 57.5034 35.5132 57.5034 35.24H53.5034ZM53.8972 37.3212C54.206 38.0623 54.9693 39.128 56.4154 39.128V35.128C56.7614 35.128 57.0922 35.2591 57.333 35.4655C57.4375 35.5551 57.503 35.6399 57.5395 35.6946C57.5756 35.7488 57.5895 35.7828 57.5895 35.7828L53.8972 37.3212ZM56.4154 39.128C57.5073 39.128 58.3406 38.5354 58.8278 37.7616L55.4429 35.6304C55.4838 35.5654 55.5894 35.4256 55.7904 35.305C56.0022 35.1779 56.2275 35.128 56.4154 35.128V39.128ZM59.1354 36.696V33.704H55.1354V36.696H59.1354ZM62.8798 33.688H64.8798V31.7664L62.9597 31.6896L62.8798 33.688ZM62.2398 33.56L61.2986 35.3247L61.3456 35.3498L61.394 35.3724L62.2398 33.56ZM61.8878 33.24L60.0989 34.1344L60.1277 34.1921L60.1602 34.2477L61.8878 33.24ZM62.8958 31.768L63.0403 33.7628L64.8958 33.6283V31.768H62.8958ZM63.7758 29.192L64.7335 30.9478L64.7457 30.9411L64.7578 30.9343L63.7758 29.192ZM66.2078 29L64.4379 29.9315L64.4379 29.9315L66.2078 29ZM66.3678 29.912H64.3678V29.9207L64.3678 29.9294L66.3678 29.912ZM66.3838 31.752L64.3838 31.7694L64.4011 33.752H66.3838V31.752ZM68.0158 31.992L66.8158 33.592L66.8602 33.6253L66.9064 33.6561L68.0158 31.992ZM68.2558 33.256L66.5 32.2983L66.5 32.2983L68.2558 33.256ZM67.9358 33.528L67.1479 31.6897L67.1226 31.7005L67.0976 31.7121L67.9358 33.528ZM67.4238 33.672L67.6331 35.661L67.6846 35.6556L67.7357 35.6475L67.4238 33.672ZM66.3838 33.704V31.704H64.3838V33.704H66.3838ZM66.3998 35.896L64.408 36.0771L64.4176 36.1835L64.4386 36.2882L66.3998 35.896ZM66.4798 36.152L64.6909 37.0464L64.6909 37.0464L66.4798 36.152ZM66.6078 36.28L65.865 38.137L65.9195 38.1588L65.9753 38.1774L66.6078 36.28ZM67.1518 36.184L68.566 37.5982L68.6075 37.5567L68.6466 37.5127L67.1518 36.184ZM67.3438 35.88L65.523 35.0524L65.5039 35.0944L65.4868 35.1372L67.3438 35.88ZM67.5358 35.576L66.0409 34.2473L66.0357 34.2531L66.0306 34.259L67.5358 35.576ZM68.3838 35.608L67.0323 37.0823L67.0616 37.1091L67.0919 37.1348L68.3838 35.608ZM68.4158 36.968L66.5309 36.2992L66.5212 36.3265L66.5123 36.354L68.4158 36.968ZM67.9358 37.928L69.5822 39.0635L69.5822 39.0635L67.9358 37.928ZM67.0398 38.696L66.1062 36.9272L66.0959 36.9327L66.0856 36.9383L67.0398 38.696ZM63.5358 38.2L65.0823 36.9318L65.0823 36.9318L63.5358 38.2ZM64.8798 35.576V33.688H60.8798V35.576H64.8798ZM62.9597 31.6896C62.9087 31.6876 62.8957 31.6836 62.912 31.6868C62.9273 31.6899 62.992 31.704 63.0855 31.7476L61.394 35.3724C61.8849 35.6015 62.3905 35.67 62.7998 35.6864L62.9597 31.6896ZM63.1809 31.7953C63.2749 31.8454 63.4653 31.9751 63.6153 32.2323L60.1602 34.2477C60.4596 34.7609 60.8846 35.1039 61.2986 35.3247L63.1809 31.7953ZM63.6766 32.3456C63.7906 32.5735 63.7918 32.7427 63.7918 32.76H59.7918C59.7918 33.1613 59.8569 33.6505 60.0989 34.1344L63.6766 32.3456ZM63.7918 32.76C63.7918 32.8077 63.7846 32.9282 63.7228 33.086C63.6573 33.253 63.5487 33.4141 63.4045 33.5437C63.131 33.7894 62.9068 33.7724 63.0403 33.7628L62.7512 29.7732C62.1487 29.8169 61.3725 29.9919 60.731 30.5683C60.0306 31.1977 59.7918 32.0289 59.7918 32.76H63.7918ZM64.8958 31.768V30.28H60.8958V31.768H64.8958ZM64.8958 30.28C64.8958 30.4261 64.8682 30.569 64.8191 30.6976C64.7713 30.8229 64.7123 30.9104 64.6708 30.9617C64.598 31.0518 64.5783 31.0324 64.7335 30.9478L62.818 27.4362C62.0283 27.867 60.8958 28.751 60.8958 30.28H64.8958ZM64.7578 30.9343C65.0958 30.7438 65.342 30.696 65.5198 30.696V26.696C64.5455 26.696 63.6291 26.9789 62.7937 27.4497L64.7578 30.9343ZM65.5198 30.696C65.5139 30.696 65.4772 30.6957 65.4173 30.6853C65.3572 30.6748 65.2622 30.6521 65.1474 30.6014C64.8911 30.4881 64.6149 30.2678 64.4379 29.9315L67.9776 28.0685C67.3606 26.8962 66.1779 26.696 65.5198 26.696V30.696ZM64.4379 29.9315C64.4011 29.8616 64.3809 29.806 64.3706 29.7733C64.3602 29.7404 64.3574 29.7229 64.3578 29.7256C64.3583 29.728 64.3609 29.7442 64.3634 29.777C64.3658 29.8094 64.3678 29.854 64.3678 29.912H68.3678C68.3678 29.3964 68.3109 28.7018 67.9776 28.0685L64.4379 29.9315ZM64.3678 29.9294L64.3838 31.7694L68.3837 31.7346L68.3677 29.8946L64.3678 29.9294ZM66.3838 33.752H66.8158V29.752H66.3838V33.752ZM66.8158 33.752C66.918 33.752 66.9983 33.7555 67.0591 33.7605C67.1207 33.7655 67.1537 33.7712 67.1635 33.7732C67.1746 33.7754 67.1465 33.7708 67.092 33.7495C67.0381 33.7284 66.9361 33.6823 66.8158 33.592L69.2157 30.392C68.7772 30.0631 68.3003 29.9213 67.948 29.8508C67.5763 29.7765 67.1888 29.752 66.8158 29.752V33.752ZM66.9064 33.6561C66.6469 33.4831 66.4905 33.2522 66.4133 33.0609C66.3456 32.8934 66.3518 32.7924 66.3518 32.824H70.3518C70.3518 32.1074 70.1486 31.0102 69.1252 30.3279L66.9064 33.6561ZM66.3518 32.824C66.3518 32.7505 66.3653 32.5451 66.5 32.2983L70.0115 34.2137C70.2742 33.7323 70.3518 33.2388 70.3518 32.824H66.3518ZM66.5 32.2983C66.694 31.9425 66.9766 31.7631 67.1479 31.6897L68.7236 35.3663C69.1936 35.1649 69.6895 34.8042 70.0115 34.2137L66.5 32.2983ZM67.0976 31.7121C67.1182 31.7026 67.1343 31.6963 67.1449 31.6925C67.1555 31.6886 67.1615 31.6869 67.1623 31.6867C67.163 31.6865 67.1593 31.6875 67.1507 31.6894C67.1421 31.6912 67.1292 31.6937 67.1118 31.6965L67.7357 35.6475C68.0622 35.596 68.4219 35.5064 68.7739 35.3439L67.0976 31.7121ZM67.2144 31.683C67.1051 31.6945 66.9294 31.704 66.6718 31.704V35.704C67.0114 35.704 67.3371 35.6922 67.6331 35.661L67.2144 31.683ZM66.6718 31.704H66.3838V35.704H66.6718V31.704ZM64.3838 33.704V35.464H68.3838V33.704H64.3838ZM64.3838 35.464C64.3838 35.6709 64.39 35.8795 64.408 36.0771L68.3915 35.7149C68.3882 35.6779 68.3838 35.5984 68.3838 35.464H64.3838ZM64.4386 36.2882C64.4787 36.4888 64.5496 36.7638 64.6909 37.0464L68.2686 35.2576C68.3107 35.3417 68.3336 35.4078 68.3447 35.4435C68.3563 35.4804 68.3606 35.5023 68.3609 35.5038L64.4386 36.2882ZM64.6909 37.0464C64.886 37.4367 65.2528 37.8921 65.865 38.137L67.3505 34.423C67.8561 34.6253 68.1375 34.9953 68.2686 35.2576L64.6909 37.0464ZM65.9753 38.1774C66.289 38.2819 66.5857 38.312 66.8318 38.312V34.312C66.9071 34.312 67.0545 34.3207 67.2402 34.3826L65.9753 38.1774ZM66.8318 38.312C67.4545 38.312 68.081 38.0831 68.566 37.5982L65.7375 34.7698C65.8765 34.6308 66.0542 34.5073 66.265 34.423C66.4734 34.3397 66.6703 34.312 66.8318 34.312V38.312ZM68.6466 37.5127C68.8676 37.2641 69.0626 36.968 69.2007 36.6228L65.4868 35.1372C65.5396 35.0053 65.6066 34.9119 65.6569 34.8553L68.6466 37.5127ZM69.1645 36.7076C69.1479 36.7441 69.1109 36.813 69.0409 36.893L66.0306 34.259C65.8113 34.5097 65.6463 34.7812 65.523 35.0524L69.1645 36.7076ZM69.0306 36.9047C68.9367 37.0103 68.7858 37.1471 68.5662 37.2569C68.3383 37.3708 68.0829 37.432 67.8238 37.432V33.432C67.0299 33.432 66.4214 33.8193 66.0409 34.2473L69.0306 36.9047ZM67.8238 37.432C67.775 37.432 67.4013 37.4205 67.0323 37.0823L69.7352 34.1337C69.1102 33.5608 68.3632 33.432 67.8238 33.432V37.432ZM67.0919 37.1348C66.976 37.0367 66.8405 36.8851 66.7377 36.6716C66.6334 36.4548 66.5918 36.2343 66.5918 36.04H70.5918C70.5918 35.2392 70.2305 34.5507 69.6756 34.0812L67.0919 37.1348ZM66.5918 36.04C66.5918 36.0565 66.5881 36.1379 66.5309 36.2992L70.3006 37.6368C70.4781 37.1367 70.5918 36.5995 70.5918 36.04H66.5918ZM66.5123 36.354C66.4701 36.4848 66.401 36.6306 66.2893 36.7925L69.5822 39.0635C69.8971 38.6068 70.148 38.1125 70.3192 37.582L66.5123 36.354ZM66.2893 36.7925C66.2857 36.7978 66.2496 36.8516 66.1062 36.9272L67.9733 40.4648C68.5979 40.1351 69.1591 39.6769 69.5822 39.0635L66.2893 36.7925ZM66.0856 36.9383C66.035 36.9658 65.9475 37 65.7758 37V41C66.5427 41 67.2979 40.8316 67.9939 40.4537L66.0856 36.9383ZM65.7758 37C65.4055 37 65.1955 36.9519 65.0964 36.9165C65.0128 36.8866 65.0382 36.8781 65.0823 36.9318L61.9892 39.4682C62.9719 40.6666 64.4426 41 65.7758 41V37ZM65.0823 36.9318C65.0995 36.9528 65.0428 36.8939 64.984 36.6589C64.9254 36.4243 64.8798 36.0732 64.8798 35.576H60.8798C60.8798 36.9378 61.1065 38.3917 61.9892 39.4682L65.0823 36.9318Z" fill="#FEAA00" mask="url(#path-4-outside-1_251_5327)"/>
</g>
<defs>
<filter id="filter0_d_251_5327" x="0" y="0" width="78" height="78" filterUnits="userSpaceOnUse" color-interpolation-filters="sRGB">
<feFlood flood-opacity="0" result="BackgroundImageFix"/>
<feColorMatrix in="SourceAlpha" type="matrix" values="0 0 0 0 0 0 0 0 0 0 0 0 0 0 0 0 0 0 127 0" result="hardAlpha"/>
<feOffset dy="4"/>
<feGaussianBlur stdDeviation="2"/>
<feComposite in2="hardAlpha" operator="out"/>
<feColorMatrix type="matrix" values="0 0 0 0 0 0 0 0 0 0 0 0 0 0 0 0 0 0 0.25 0"/>
<feBlend mode="normal" in2="BackgroundImageFix" result="effect1_dropShadow_251_5327"/>
<feBlend mode="normal" in="SourceGraphic" in2="effect1_dropShadow_251_5327" result="shape"/>
</filter>
<clipPath id="clip0_251_5327">
<rect width="36" height="36" fill="white" transform="translate(20 17)"/>
</clipPath>
</defs>
</svg>
