<svg width="84" height="85" viewBox="0 0 84 85" fill="none" xmlns="http://www.w3.org/2000/svg">
<path d="M42 29.4167V42.75M42 42.75V56.0833M42 42.75H55.3333M42 42.75H28.6667M82 42.75C82 48.0029 80.9654 53.2043 78.9552 58.0573C76.945 62.9104 73.9986 67.3199 70.2843 71.0343C66.5699 74.7486 62.1604 77.695 57.3073 79.7052C52.4543 81.7154 47.2529 82.75 42 82.75C36.7471 82.75 31.5457 81.7154 26.6927 79.7052C21.8396 77.695 17.4301 74.7486 13.7157 71.0343C10.0014 67.3199 7.05501 62.9104 5.04482 58.0573C3.03463 53.2043 2 48.0029 2 42.75C2 32.1413 6.21427 21.9672 13.7157 14.4657C21.2172 6.96427 31.3913 2.75 42 2.75C52.6087 2.75 62.7828 6.96427 70.2843 14.4657C77.7857 21.9672 82 32.1413 82 42.75Z" stroke="#1A8639" stroke-width="4" stroke-linecap="round" stroke-linejoin="round"/>
</svg>
