<svg width="20" height="20" viewBox="0 0 20 20" fill="none" xmlns="http://www.w3.org/2000/svg">
<path fill-rule="evenodd" clip-rule="evenodd" d="M0.450746 1.98921C0.73925 1.70079 1.13049 1.53876 1.53844 1.53876C1.94638 1.53876 2.33763 1.70079 2.62613 1.98921L9.23075 8.59382L15.8354 1.98921C15.9773 1.84227 16.147 1.72506 16.3347 1.64443C16.5224 1.5638 16.7243 1.52136 16.9286 1.51959C17.1329 1.51781 17.3355 1.55674 17.5245 1.63409C17.7136 1.71145 17.8854 1.82569 18.0298 1.97014C18.1743 2.11459 18.2885 2.28636 18.3659 2.47543C18.4432 2.6645 18.4821 2.86709 18.4804 3.07136C18.4786 3.27564 18.4361 3.47751 18.3555 3.66521C18.2749 3.85291 18.1577 4.02267 18.0107 4.16459L11.4061 10.7692L18.0107 17.3738C18.291 17.664 18.4461 18.0526 18.4426 18.456C18.439 18.8594 18.2772 19.2452 17.992 19.5305C17.7068 19.8157 17.3209 19.9775 16.9175 19.981C16.5141 19.9845 16.1255 19.8294 15.8354 19.5492L9.23075 12.9446L2.62613 19.5492C2.33597 19.8294 1.94735 19.9845 1.54397 19.981C1.14059 19.9775 0.75473 19.8157 0.469487 19.5305C0.184243 19.2452 0.0224445 18.8594 0.0189392 18.456C0.015434 18.0526 0.170503 17.664 0.450746 17.3738L7.05536 10.7692L0.450746 4.16459C0.162329 3.87609 0.000305176 3.48484 0.000305176 3.0769C0.000305176 2.66895 0.162329 2.27771 0.450746 1.98921Z" fill="#D82300"/>
</svg>
