<svg width="25" height="25" viewBox="0 0 25 25" fill="none" xmlns="http://www.w3.org/2000/svg">
<path d="M0.292893 23.2929C-0.0976311 23.6834 -0.0976311 24.3166 0.292893 24.7071C0.683417 25.0976 1.31658 25.0976 1.70711 24.7071L0.292893 23.2929ZM23 11C23 15.9706 18.9706 20 14 20V22C20.0751 22 25 17.0751 25 11H23ZM14 20C9.02944 20 5 15.9706 5 11H3C3 17.0751 7.92487 22 14 22V20ZM5 11C5 6.02944 9.02944 2 14 2V0C7.92487 0 3 4.92487 3 11H5ZM14 2C18.9706 2 23 6.02944 23 11H25C25 4.92487 20.0751 0 14 0V2ZM7.29289 16.2929L0.292893 23.2929L1.70711 24.7071L8.70711 17.7071L7.29289 16.2929Z" fill="#502314"/>
</svg>
