<svg width="45" height="50" viewBox="0 0 45 50" fill="none" xmlns="http://www.w3.org/2000/svg">
<path d="M40.1001 12.8L37.9326 43.1551C37.8428 44.4165 37.2783 45.5971 36.3529 46.459C35.4274 47.3209 34.2097 47.8001 32.9451 47.8001H12.2551C10.9904 47.8001 9.77276 47.3209 8.84731 46.459C7.92186 45.5971 7.35739 44.4165 7.2676 43.1551L5.1001 12.8M17.6001 22.8001V37.8001M27.6001 22.8001V37.8001M30.1001 12.8V5.30005C30.1001 4.63701 29.8367 4.00112 29.3679 3.53228C28.899 3.06344 28.2631 2.80005 27.6001 2.80005H17.6001C16.9371 2.80005 16.3012 3.06344 15.8323 3.53228C15.3635 4.00112 15.1001 4.63701 15.1001 5.30005V12.8M2.6001 12.8H42.6001" stroke="#D82300" stroke-width="4" stroke-linecap="round" stroke-linejoin="round"/>
</svg>
